HIERARCHY
ROOT Hips
{
	OFFSET 0.000000 0.000000 0.000000
	CHANNELS 6 Xposition Yposition Zposition Zrotation Yrotation Xrotation 
	JOINT LHipJoint
	{
		OFFSET 0.000000 0.000000 0.000000
		CHANNELS 3 Zrotation Yrotation Xrotation
		JOINT LeftUpLeg
		{
			OFFSET 1.363060 -1.794630 0.839290
			CHANNELS 3 Zrotation Yrotation Xrotation
			JOINT LeftLeg
			{
				OFFSET 2.448110 -6.726130 0.000000
				CHANNELS 3 Zrotation Yrotation Xrotation
				JOINT LeftFoot
				{
					OFFSET 2.562200 -7.039590 0.000000
					CHANNELS 3 Zrotation Yrotation Xrotation
					JOINT LeftToeBase
					{
						OFFSET 0.157640 -0.433110 2.322550
						CHANNELS 3 Zrotation Yrotation Xrotation
						End Site
						{
							OFFSET 0.000000 0.000000 0.000000
						}
					}
				}
			}
		}
	}
	JOINT RHipJoint
	{
		OFFSET 0.000000 0.000000 0.000000
		CHANNELS 3 Zrotation Yrotation Xrotation
		JOINT RightUpLeg
		{
			OFFSET -1.305520 -1.794630 0.839290
			CHANNELS 3 Zrotation Yrotation Xrotation
			JOINT RightLeg
			{
				OFFSET -2.542530 -6.985550 0.000000
				CHANNELS 3 Zrotation Yrotation Xrotation
				JOINT RightFoot
				{
					OFFSET -2.568260 -7.056230 0.000000
					CHANNELS 3 Zrotation Yrotation Xrotation
					JOINT RightToeBase
					{
						OFFSET -0.164730 -0.452590 2.363150
						CHANNELS 3 Zrotation Yrotation Xrotation
						End Site
						{
							OFFSET 0.000000 0.000000 0.000000
						}
					}
				}
			}
		}
	}
	JOINT LowerBack
	{
		OFFSET 0.000000 0.000000 0.000000
		CHANNELS 3 Zrotation Yrotation Xrotation
		JOINT Spine
		{
			OFFSET 0.028270 2.035590 -0.193380
			CHANNELS 3 Zrotation Yrotation Xrotation
			JOINT Spine1
			{
				OFFSET 0.056720 2.048850 -0.042750
				CHANNELS 3 Zrotation Yrotation Xrotation
				JOINT Neck
				{
					OFFSET 0.000000 0.000000 0.000000
					CHANNELS 3 Zrotation Yrotation Xrotation
					JOINT Neck1
					{
						OFFSET -0.054170 1.746240 0.172020
						CHANNELS 3 Zrotation Yrotation Xrotation
						JOINT Head
						{
							OFFSET 0.104070 1.761360 -0.123970
							CHANNELS 3 Zrotation Yrotation Xrotation
							End Site
							{
								OFFSET 0.000000 0.000000 0.000000
							}
						}
					}
				}
				JOINT LeftShoulder
				{
					OFFSET 0.000000 0.000000 0.000000
					CHANNELS 3 Zrotation Yrotation Xrotation
					JOINT LeftArm
					{
						OFFSET 3.362410 1.200890 -0.311210
						CHANNELS 3 Zrotation Yrotation Xrotation
						JOINT LeftForeArm
						{
							OFFSET 4.983000 -0.000000 -0.000000
							CHANNELS 3 Zrotation Yrotation Xrotation
							JOINT LeftHand
							{
								OFFSET 3.483560 -0.000000 -0.000000
								CHANNELS 3 Zrotation Yrotation Xrotation
								JOINT LeftFingerBase
								{
									OFFSET 0.000000 0.000000 0.000000
									CHANNELS 3 Zrotation Yrotation Xrotation
									JOINT LeftHandIndex1
									{
										OFFSET 0.715260 -0.000000 -0.000000
										CHANNELS 3 Zrotation Yrotation Xrotation
										End Site
										{
											OFFSET 0.000000 0.000000 0.000000
										}
									}
								}
								JOINT LThumb
								{
									OFFSET 0.000000 0.000000 0.000000
									CHANNELS 3 Zrotation Yrotation Xrotation
									End Site
									{
										OFFSET 0.000000 0.000000 0.000000
									}
								}
							}
						}
					}
				}
				JOINT RightShoulder
				{
					OFFSET 0.000000 0.000000 0.000000
					CHANNELS 3 Zrotation Yrotation Xrotation
					JOINT RightArm
					{
						OFFSET -3.136600 1.374050 -0.404650
						CHANNELS 3 Zrotation Yrotation Xrotation
						JOINT RightForeArm
						{
							OFFSET -5.241900 -0.000000 -0.000000
							CHANNELS 3 Zrotation Yrotation Xrotation
							JOINT RightHand
							{
								OFFSET -3.444170 -0.000000 -0.000000
								CHANNELS 3 Zrotation Yrotation Xrotation
								JOINT RightFingerBase
								{
									OFFSET 0.000000 0.000000 0.000000
									CHANNELS 3 Zrotation Yrotation Xrotation
									JOINT RightHandIndex1
									{
										OFFSET -0.622530 -0.000000 -0.000000
										CHANNELS 3 Zrotation Yrotation Xrotation
										End Site
										{
											OFFSET 0.000000 0.000000 0.000000
										}
									}
								}
								JOINT RThumb
								{
									OFFSET 0.000000 0.000000 0.000000
									CHANNELS 3 Zrotation Yrotation Xrotation
									End Site
									{
										OFFSET 0.000000 0.000000 0.000000
									}
								}
							}
						}
					}
				}
			}
		}
	}
}
MOTION
Frames: 6
Frame Time: 0.008333
3.250240 17.196934 1.867564 -28.940428 -77.654212 34.623516 -11.143118 -1.912213 -3.275998 -7.221195 -6.488099 -8.040633 -1.276926 0.657887 16.932110 1.413156 7.429000 -10.102591 -0.407000 0.000000 -31.343000 6.822056 5.712060 4.200909 -9.292901 -8.223144 -81.937771 2.411943 1.235318 -2.185415 0.228068 -1.709014 6.964724 -1.719900 -0.000000 -84.216801 4.665916 -4.097214 2.996084 -0.092028 -4.303690 -2.692660 -7.967285 -4.322691 -0.889534 12.724867 -7.198932 -5.027578 -4.353942 -0.348732 0.614475 0.000000 0.000000 0.000000 -1.850903 -3.972293 2.030619 -68.821322 -4.323313 15.285195 -2.865293 -28.587423 0.000323 4.942063 -4.544889 -0.202268 -0.076868 0.081785 0.000000 0.000000 0.000000 0.000000 0.000000 0.000000 0.000000 20.995994 -7.199660 1.255861 71.511136 -0.615179 -4.741463 3.401798 19.267120 0.011669 0.582527 9.508001 0.044073 0.062119 -0.067052 -0.000000 0.000000 0.000000 0.000000 0.000000 0.000000 0.000000 
3.246533 17.189780 1.867537 -29.146604 -77.649466 34.706828 -11.138032 -1.822946 -3.039284 -7.184855 -6.373642 -8.501411 -1.280501 0.660323 17.487639 1.403730 7.312823 -10.343756 -0.441900 0.000000 -31.394900 6.930709 5.634977 3.887239 -8.449113 -7.922807 -77.951613 2.328838 1.490705 -6.389262 -0.026112 -2.556197 12.489103 -1.984500 0.000000 -85.712700 4.555285 -4.017330 2.884815 -0.116059 -4.228182 -2.682218 -7.986004 -4.245321 -0.837051 12.845471 -7.370381 -5.057221 -4.348405 -0.348711 0.610464 0.000000 0.000000 0.000000 -1.839999 -3.775274 1.959754 -68.844196 -4.371430 15.892055 -2.860292 -28.812432 0.000608 4.717951 -4.423127 -0.188059 -0.077091 0.080629 0.000000 0.000000 0.000000 0.000000 0.000000 0.000000 0.000000 21.123767 -7.308414 1.217028 71.397045 -0.641975 -4.783537 3.399377 19.458923 0.011803 0.521191 9.593861 0.039179 0.062703 -0.067397 -0.000000 0.000000 0.000000 0.000000 0.000000 0.000000 0.000000 
3.243924 17.182639 1.868396 -29.567015 -77.731960 34.914699 -11.138398 -1.740919 -2.859805 -7.161572 -6.225820 -8.732096 -1.283745 0.664252 17.918358 1.402561 7.260499 -10.557615 -0.474000 0.000000 -31.423100 7.036352 5.515033 3.537366 -7.301617 -7.613347 -75.422609 2.354814 1.412428 -7.497307 -0.238317 -2.783144 17.202169 -2.021900 0.000000 -86.086599 4.462950 -3.922948 2.883370 -0.142940 -4.132913 -2.666869 -8.001233 -4.148376 -0.805290 12.934272 -7.485275 -5.087722 -4.340686 -0.348173 0.604028 0.000000 0.000000 0.000000 -1.882534 -3.538093 1.905472 -68.837326 -4.408640 16.428107 -2.852830 -29.087878 0.000856 4.515998 -4.327438 -0.176151 -0.077053 0.079601 0.000000 0.000000 0.000000 0.000000 0.000000 0.000000 0.000000 21.200223 -7.345529 1.190143 71.293980 -0.660906 -4.824633 3.396833 19.611240 0.011957 0.433917 9.712786 0.032185 0.063356 -0.067980 -0.000000 0.000000 0.000000 0.000000 0.000000 0.000000 0.000000 
3.242808 17.175850 1.870423 -30.247058 -77.906657 35.346476 -11.158109 -1.691156 -2.804327 -7.123864 -6.006786 -8.713818 -1.290079 0.672248 18.195686 1.401522 7.223077 -10.735313 -0.500800 -0.000000 -31.468800 7.139570 5.327351 3.298090 -6.474007 -7.105384 -76.021377 2.389556 0.717072 -2.098196 -0.284426 -2.701190 18.849288 -1.998801 -0.000000 -84.901701 4.402387 -3.813511 2.954566 -0.172463 -4.019183 -2.662382 -8.012293 -4.033021 -0.792527 12.985171 -7.535380 -5.120739 -4.330494 -0.347012 0.594401 0.000000 0.000000 0.000000 -1.978226 -3.234212 1.869704 -68.808269 -4.457771 16.900071 -2.843944 -29.385259 0.001067 4.357425 -4.271362 -0.167844 -0.076933 0.078766 0.000000 0.000000 0.000000 0.000000 0.000000 0.000000 0.000000 21.216311 -7.308911 1.172873 71.206141 -0.664583 -4.863066 3.395912 19.713962 0.012134 0.330119 9.857490 0.023591 0.064089 -0.068685 -0.000000 0.000000 0.000000 0.000000 0.000000 0.000000 0.000000 
3.242935 17.169953 1.873004 -31.214402 -78.106967 35.895422 -11.176738 -1.639292 -2.778370 -7.072137 -5.704431 -8.408123 -1.294263 0.682245 18.308901 1.401360 7.207143 -10.857970 -0.520400 -0.000000 -31.527800 7.196398 5.174424 2.927516 -5.639331 -6.560444 -76.097360 2.326960 0.027672 3.079096 -0.343865 -2.630225 20.842223 -1.962000 -0.000001 -82.163800 4.381433 -3.706210 3.191370 -0.194720 -3.902372 -2.626007 -8.019255 -3.914414 -0.798685 13.004295 -7.518709 -5.142404 -4.318815 -0.345560 0.585789 0.000000 0.000000 0.000000 -2.113806 -2.914693 1.847386 -68.763611 -4.486978 17.264132 -2.832183 -29.709411 0.001229 4.253582 -4.260916 -0.163438 -0.076682 0.078205 0.000000 0.000000 0.000000 0.000000 0.000000 0.000000 0.000000 21.182151 -7.193432 1.165876 71.132491 -0.652504 -4.889456 3.395001 19.761204 0.012301 0.218522 10.016795 0.014095 0.064725 -0.069490 -0.000000 0.000000 0.000000 0.000000 0.000000 0.000000 0.000000 
3.243182 17.165804 1.877723 -32.593480 -78.322755 36.775975 -11.208578 -1.585824 -2.768064 -6.954121 -5.289120 -7.982404 -1.295296 0.694328 18.327121 1.394444 7.157578 -10.942557 -0.532600 0.000000 -31.614400 7.210552 5.043282 2.497829 -4.842193 -5.943669 -75.627624 2.191827 -0.571596 7.681320 -0.422746 -2.615991 22.939388 -1.935800 -0.000000 -78.560800 4.437905 -3.595390 3.501437 -0.200742 -3.783008 -2.574024 -8.020626 -3.793405 -0.813465 12.981992 -7.440174 -5.155875 -4.305521 -0.343921 0.578695 0.000000 0.000000 0.000000 -2.314038 -2.554844 1.833252 -68.708721 -4.503600 17.530964 -2.816603 -30.038453 0.001340 4.216716 -4.301327 -0.163534 -0.076353 0.077893 0.000000 0.000000 0.000000 0.000000 0.000000 0.000000 0.000000 21.087505 -7.005324 1.164265 71.057557 -0.623932 -4.893786 3.399028 19.750902 0.012490 0.110921 10.176608 0.004601 0.065458 -0.070288 -0.000000 0.000000 0.000000 0.000000 0.000000 0.000000 0.000000 
